<?xml version="1.0" encoding="UTF-8" standalone="no"?>
<!DOCTYPE svg PUBLIC "-//W3C//DTD SVG 1.1//EN" "http://www.w3.org/Graphics/SVG/1.1/DTD/svg11.dtd">
<svg width="100%" height="100%" viewBox="0 0 512 512" version="1.1" xmlns="http://www.w3.org/2000/svg" xmlns:xlink="http://www.w3.org/1999/xlink" xml:space="preserve" xmlns:serif="http://www.serif.com/" style="fill-rule:evenodd;clip-rule:evenodd;stroke-linecap:round;stroke-linejoin:round;stroke-miterlimit:1.5;">
    <g transform="matrix(0.941406,0,0,0.941406,-27.207,1.06581e-13)">
        <path d="M374.157,0L137.843,0C125.096,0 114.759,10.337 114.759,23.084L114.759,488.916C114.759,501.663 125.096,512 137.843,512L374.166,512C386.904,512 397.241,501.663 397.241,488.916L397.241,23.084C397.241,10.337 386.904,0 374.157,0Z" style="fill:rgb(44,53,63);fill-rule:nonzero;"/>
        <rect x="114.759" y="52.966" width="282.483" height="370.759" style="fill:rgb(101,158,216);fill-rule:nonzero;"/>
        <g transform="matrix(1.60076,0,0,1.61006,-151.448,-331.665)">
            <rect x="168" y="240" width="173" height="23" style="fill:rgb(242,242,242);stroke:rgb(217,217,217);stroke-width:1.32px;"/>
        </g>
        <g>
            <path d="M300.138,35.31L211.862,35.31C206.989,35.31 203.034,31.355 203.034,26.482C203.034,21.609 206.989,17.654 211.862,17.654L300.138,17.654C305.011,17.654 308.966,21.609 308.966,26.482C308.966,31.355 305.011,35.31 300.138,35.31ZM361.931,35.31L353.103,35.31C348.23,35.31 344.275,31.355 344.275,26.482C344.275,21.609 348.23,17.654 353.103,17.654L361.931,17.654C366.804,17.654 370.759,21.609 370.759,26.482C370.759,31.355 366.804,35.31 361.931,35.31ZM266.955,485.517L245.036,485.517C236.464,485.517 229.517,478.57 229.517,469.989L229.517,465.725C229.517,457.153 236.464,450.206 245.045,450.206L266.964,450.206C275.536,450.206 282.483,457.153 282.483,465.734L282.483,469.998C282.483,478.57 275.535,485.517 266.955,485.517Z" style="fill:rgb(196,206,211);fill-rule:nonzero;"/>
        </g>
    </g>
    <g transform="matrix(1.28276,0,0,1.26032,-42.7442,-49.8872)">
        <g transform="matrix(1,0,0,1,14.4496,0)">
            <path d="M355.491,237.807L355.491,369.027C355.491,374.347 355.111,379.667 354.361,384.917C353.601,390.177 352.481,395.377 350.991,400.487C348.861,407.747 347.261,415.137 346.201,422.607C345.131,430.067 344.591,437.607 344.591,445.177L190.141,445.177L190.141,421.417C190.141,417.577 189.041,413.917 187.051,410.807C185.081,407.697 182.231,405.127 178.761,403.497C175.411,401.917 171.051,399.217 166.981,396.517C159.411,391.487 153.371,384.457 149.511,376.227L123.571,320.887C119.131,311.427 120.641,300.237 127.431,292.287L136.281,281.917C141.421,275.907 143.741,267.977 142.681,260.147C142.551,259.217 142.481,258.287 142.481,257.377C142.481,246.387 151.411,237.177 162.731,237.177C163.741,237.177 164.741,237.217 165.731,237.317C169.511,237.637 173.121,238.597 176.441,240.077L176.441,105.637C176.441,99.237 179.031,93.457 183.231,89.257C187.421,85.077 193.211,82.487 199.611,82.487C212.391,82.487 222.761,92.847 222.761,105.637L222.761,211.407C222.761,205.007 225.351,199.227 229.541,195.027C233.741,190.837 239.521,188.247 245.921,188.247C258.711,188.247 269.071,198.617 269.071,211.407L269.071,227.377C269.071,220.987 271.661,215.197 275.851,211.007C280.041,206.817 285.841,204.227 292.231,204.227C305.021,204.227 315.391,214.587 315.391,227.377L315.391,238.257C315.391,227.237 324.101,217.937 335.121,217.757C340.791,217.667 345.921,219.937 349.621,223.627C353.241,227.257 355.491,232.277 355.491,237.807Z" style="fill:rgb(252,208,159);fill-rule:nonzero;"/>
        </g>
        <g transform="matrix(1,0,0,1,14.4496,0)">
            <path d="M176.441,240.077L176.441,312.487C173.481,312.487 170.801,311.287 168.871,309.357C166.931,307.417 165.731,304.737 165.731,301.777L165.731,237.317C169.511,237.637 173.121,238.597 176.441,240.077Z" style="fill:rgb(226,185,145);fill-rule:nonzero;"/>
        </g>
    </g>
</svg>
