<svg viewBox="0 0 512 512" xmlns="http://www.w3.org/2000/svg" fill-rule="evenodd" clip-rule="evenodd" stroke-linejoin="round" stroke-miterlimit="2"><g fill-rule="nonzero"><path d="M386.019 60.636v379.117l-153.347 10.302-153.348-10.302V60.636l157.47-10.301 149.225 10.301z" fill="#f9f8f8"/><path fill="#ede8e5" d="M79.324 60.636h20.604v379.117H79.324z"/></g><g fill-rule="nonzero"><path d="M386.019 439.753v31.05c0 22.757-18.44 41.197-41.207 41.197H115.123c-2.813-.103-14.814-.834-24.725-10.559-10.93-10.735-11.084-24.323-11.074-26.775v-34.913h306.695z" fill="#5f6c75"/><path d="M135.726 512h-20.603c-2.813-.103-14.814-.834-24.725-10.559-10.93-10.735-11.084-24.323-11.074-26.775v-34.913h20.604v34.913c-.011 2.452.144 16.04 11.074 26.775 9.91 9.725 21.912 10.456 24.724 10.559z" fill="#4e5a61"/></g><path d="M150.994 273.995c2.52 1.525 5.88 1.387 8.291-.291l29.893-20.58a7.727 7.727 0 001.982-10.745 7.726 7.726 0 00-10.745-1.984l-17.772 12.237.033-39.885a7.726 7.726 0 10-15.453-.013l-.033 39.885-17.752-12.264a7.725 7.725 0 00-10.748 1.966 7.694 7.694 0 00-1.37 4.378 7.718 7.718 0 003.335 6.37l29.858 20.629c.158.103.318.204.481.297zM162.67 174.323l-.026-39.886 17.77 12.239a7.724 7.724 0 0010.745-1.982 7.724 7.724 0 00-1.98-10.746l-29.889-20.584c-2.574-1.802-6.2-1.8-8.773.006l-29.862 20.622a7.72 7.72 0 00-1.967 10.748 7.727 7.727 0 0010.748 1.969l17.755-12.262.025 39.886a7.726 7.726 0 007.732 7.721 7.725 7.725 0 007.721-7.73z" fill="#aac7fa" fill-rule="nonzero"/><path d="M432.676 388.356c0-15.721-12.792-28.464-28.573-28.464-11.607 0-21.591 6.899-26.063 16.801v-13.966c0-15.721-12.791-28.465-28.573-28.465-15.781 0-28.573 12.743-28.573 28.465l-.031-22.847c0-15.72-12.791-28.463-28.572-28.463-13.183 0-24.275 8.896-27.571 20.991V231.022c0-15.72-12.791-28.465-28.572-28.465-15.781 0-28.573 12.744-28.573 28.465v206.607l-41.074-40.919c-11.159-11.116-29.25-11.116-40.409 0-11.158 11.117-11.158 29.139 0 40.256l58.422 62c2.266 2.406 8.636 8.791 18.74 11.744a38.184 38.184 0 006.425 1.291l194.424-.023c15.78 0 28.573-12.743 28.573-28.465a48.543 48.543 0 010-3.434v-91.723z" fill="#f0c585" fill-rule="nonzero"/><g fill="#ebaa61" fill-rule="nonzero"><path d="M232.347 202.812a28.224 28.224 0 00-4.172 14.814v227.951c0 4.584-5.538 6.885-8.786 3.65l-11.818-11.771V231.018c0-14.433 10.786-26.362 24.776-28.206zM235.417 512h-25.734a38.227 38.227 0 01-6.428-1.288c-10.106-2.956-16.473-9.343-18.739-11.744l-58.422-62.006c-10.806-10.776-11.146-28.021-.999-39.199a28.29 28.29 0 008.334 18.801c19.47 20.665 57.371 61.739 76.841 82.404 2.267 2.401 8.633 8.788 18.739 11.744a37.892 37.892 0 006.408 1.288zM289.357 311.568a28.46 28.46 0 00-4.028 14.608v56.217c0 5.69-4.612 10.302-10.302 10.302-5.689 0-10.301-4.612-10.301-10.302v-49.23c0-.501.064-1.003.208-1.482 3.255-10.825 12.804-18.935 24.423-20.113zM348.665 334.283c-3.977 5.357-6.562 12.208-7.067 19.759v28.351c0 5.69-4.612 10.302-10.302 10.302-5.69 0-10.302-4.612-10.302-10.302v-21.735c0-.179.007-.359.023-.539 1.291-14.243 13.121-25.446 27.648-25.836zM402.914 359.925c-2.833 5.171-4.265 11.074-4.265 17.049v5.419c0 5.69-4.612 10.302-10.302 10.302-5.689 0-10.301-4.612-10.301-10.302v-4.523c0-.772.154-1.545.504-2.235 4.523-9.004 13.691-15.278 24.364-15.71z"/></g><path d="M386.019 37.921v22.715H79.324V37.9c.01-2.802.361-15.432 10.343-26.012C100.525.391 114.566.021 117.039 0h231.368c2.565.021 15.844.381 26.569 11.136 10.806 10.848 11.053 24.251 11.043 26.785z" fill="#5f6c75" fill-rule="nonzero"/><path d="M137.642 0c-2.472.021-16.513.391-27.371 11.888-9.983 10.58-10.333 23.21-10.343 26.012v22.736H79.324V37.9c.01-2.802.361-15.432 10.343-26.012C100.525.391 114.566.021 117.039 0h20.603zM263.01 38.107h-52.432a7.725 7.725 0 01-7.726-7.726 7.725 7.725 0 017.726-7.726h52.432a7.726 7.726 0 110 15.452z" fill="#4e5a61" fill-rule="nonzero"/><circle cx="304.209" cy="30.38" r="7.726" fill="#4e5a61"/></svg>