<svg viewBox="0 0 512 512" xmlns="http://www.w3.org/2000/svg" fill-rule="evenodd" clip-rule="evenodd" stroke-linecap="round" stroke-linejoin="round" stroke-miterlimit="1.5"><path d="M325.027 0H102.559c-12 0-21.731 9.731-21.731 21.731v438.537c0 12 9.731 21.732 21.731 21.732h222.476c11.992 0 21.723-9.731 21.723-21.732V21.731c0-12-9.731-21.731-21.731-21.731z" fill="#2c353f" fill-rule="nonzero"/><path fill="#659ed8" fill-rule="nonzero" d="M80.828 49.863h265.931v349.034H80.828z"/><path fill="#f2f2f2" stroke="#d9d9d9" stroke-width="1.32" d="M168 240h173v23H168z" transform="matrix(1.50697 0 0 1.51572 -169.781 -312.231)"/><path d="M255.345 33.241H172.24a8.314 8.314 0 01-8.31-8.31 8.314 8.314 0 018.31-8.311h83.104a8.314 8.314 0 018.31 8.31 8.314 8.314 0 01-8.31 8.311zm58.172 0h-8.31a8.314 8.314 0 01-8.311-8.31 8.314 8.314 0 018.31-8.311h8.311a8.314 8.314 0 018.31 8.31 8.314 8.314 0 01-8.31 8.311zm-89.411 423.828h-20.635c-8.07 0-14.61-6.54-14.61-14.619v-4.014c0-8.07 6.54-14.61 14.619-14.61h20.635c8.07 0 14.61 6.54 14.61 14.619v4.014c0 8.07-6.542 14.61-14.619 14.61z" fill="#c4ced3" fill-rule="nonzero"/><g><path d="M431.8 249.826v165.379c0 6.705-.487 13.41-1.449 20.026a141.083 141.083 0 01-4.323 19.624 194.666 194.666 0 00-6.144 27.878 196.878 196.878 0 00-2.065 28.445H219.696v-29.945c0-4.84-1.41-9.452-3.963-13.372a25.214 25.214 0 00-10.634-9.213c-4.298-1.991-9.89-5.394-15.111-8.797a62.955 62.955 0 01-22.41-25.572l-33.275-69.746c-5.695-11.923-3.758-26.026 4.952-36.045l11.352-13.07c6.593-7.574 9.57-17.568 8.21-27.437a24.865 24.865 0 01-.257-3.49c0-13.852 11.455-25.46 25.976-25.46 1.296 0 2.578.051 3.848.177a43.145 43.145 0 0113.739 3.479V83.249c0-8.066 3.322-15.35 8.71-20.644 5.374-5.268 12.802-8.532 21.011-8.532 16.394 0 29.696 13.057 29.696 29.176v133.304c0-8.066 3.322-15.35 8.697-20.644 5.388-5.28 12.802-8.545 21.012-8.545 16.406 0 29.696 13.07 29.696 29.19v20.127c0-8.054 3.322-15.351 8.697-20.632 5.375-5.28 12.815-8.545 21.011-8.545 16.407 0 29.71 13.057 29.71 29.177v13.712c0-13.889 11.172-25.61 25.308-25.837a25.91 25.91 0 0118.6 7.398c4.644 4.575 7.53 10.902 7.53 17.872z" fill="#fcd09f" fill-rule="nonzero"/><path d="M202.123 252.687v91.26a13.821 13.821 0 01-9.71-3.945c-2.49-2.445-4.029-5.823-4.029-9.554v-81.24a43.145 43.145 0 0113.739 3.479z" fill="#e2b991" fill-rule="nonzero"/></g></svg>