<?xml version="1.0" encoding="UTF-8" standalone="no"?>
<!DOCTYPE svg PUBLIC "-//W3C//DTD SVG 1.1//EN" "http://www.w3.org/Graphics/SVG/1.1/DTD/svg11.dtd">
<svg width="100%" height="100%" viewBox="0 0 512 512" version="1.1" xmlns="http://www.w3.org/2000/svg" xmlns:xlink="http://www.w3.org/1999/xlink" xml:space="preserve" xmlns:serif="http://www.serif.com/" style="fill-rule:evenodd;clip-rule:evenodd;stroke-linejoin:round;stroke-miterlimit:2;">
    <g>
        <g>
            <path d="M386.019,60.636L386.019,439.753L232.672,450.055L79.324,439.753L79.324,60.636L236.794,50.335L386.019,60.636Z" style="fill:rgb(249,248,248);fill-rule:nonzero;"/>
            <rect x="79.324" y="60.636" width="20.604" height="379.117" style="fill:rgb(237,232,229);fill-rule:nonzero;"/>
        </g>
        <g>
            <path d="M386.019,439.753L386.019,470.803C386.019,493.56 367.579,512 344.812,512L115.123,512C112.31,511.897 100.309,511.166 90.398,501.441C79.468,490.706 79.314,477.118 79.324,474.666L79.324,439.753L386.019,439.753Z" style="fill:rgb(95,108,117);fill-rule:nonzero;"/>
            <path d="M135.726,512L115.123,512C112.31,511.897 100.309,511.166 90.398,501.441C79.468,490.706 79.314,477.118 79.324,474.666L79.324,439.753L99.928,439.753L99.928,474.666C99.917,477.118 100.072,490.706 111.002,501.441C120.912,511.166 132.914,511.897 135.726,512Z" style="fill:rgb(78,90,97);fill-rule:nonzero;"/>
        </g>
        <g transform="matrix(-0.000815299,1,-1,-0.000815299,378.228,-86.3457)">
            <path d="M360.526,226.94C362.049,224.419 361.908,221.058 360.228,218.649L339.624,188.773C337.201,185.261 332.39,184.377 328.877,186.8C325.364,189.223 324.48,194.033 326.902,197.546L339.153,215.308L299.268,215.308C295.001,215.308 291.541,218.766 291.541,223.034C291.541,227.302 295.001,230.761 299.268,230.761L339.153,230.761L326.903,248.523C324.48,252.036 325.364,256.847 328.878,259.27C330.217,260.193 331.745,260.637 333.257,260.637C335.712,260.637 338.126,259.47 339.625,257.296L360.229,227.421C360.332,227.263 360.433,227.103 360.526,226.94Z" style="fill:rgb(170,199,250);fill-rule:nonzero;"/>
        </g>
        <g transform="matrix(0.000640553,1,-1,0.000640553,377.866,0.599328)">
            <path d="M173.586,215.308L133.7,215.308L145.95,197.545C148.373,194.033 147.489,189.222 143.975,186.799C140.462,184.375 135.65,185.258 133.228,188.772L112.625,218.648C110.821,221.221 110.821,224.847 112.625,227.421L133.228,257.296C134.728,259.47 137.141,260.637 139.596,260.637C141.108,260.637 142.636,260.193 143.975,259.27C147.488,256.847 148.372,252.037 145.95,248.523L133.7,230.761L173.586,230.761C177.853,230.761 181.312,227.302 181.312,223.034C181.312,218.766 177.853,215.308 173.586,215.308Z" style="fill:rgb(170,199,250);fill-rule:nonzero;"/>
        </g>
        <path d="M432.676,388.356C432.676,372.635 419.884,359.892 404.103,359.892C392.496,359.892 382.512,366.791 378.04,376.693L378.04,362.727C378.04,347.006 365.249,334.262 349.467,334.262C333.686,334.262 320.894,347.005 320.894,362.727C320.884,355.112 320.874,347.497 320.863,339.88C320.863,324.16 308.072,311.417 292.291,311.417C279.108,311.417 268.016,320.313 264.72,332.408L264.72,231.022C264.72,215.302 251.929,202.557 236.148,202.557C220.367,202.557 207.575,215.301 207.575,231.022L207.575,437.629L166.501,396.71C155.342,385.594 137.251,385.594 126.092,396.71C114.934,407.827 114.934,425.849 126.092,436.966C145.566,457.632 165.04,478.3 184.514,498.966C186.78,501.372 193.15,507.757 203.254,510.71C205.98,511.507 208.277,511.843 209.679,512.001C274.487,511.993 339.295,511.986 404.103,511.978C419.883,511.978 432.676,499.235 432.676,483.513C432.636,482.358 432.635,481.236 432.676,480.079L432.676,388.356Z" style="fill:rgb(240,197,133);fill-rule:nonzero;"/>
        <g>
            <path d="M232.347,202.812C229.699,207.128 228.175,212.197 228.175,217.626L228.175,445.577C228.175,450.161 222.637,452.462 219.389,449.227L207.571,437.456L207.571,231.018C207.571,216.585 218.357,204.656 232.347,202.812Z" style="fill:rgb(235,170,97);fill-rule:nonzero;"/>
            <path d="M235.417,512L209.683,512C208.282,511.845 205.985,511.506 203.255,510.712C193.149,507.756 186.782,501.369 184.516,498.968C165.045,478.303 145.565,457.627 126.094,436.962C115.288,426.186 114.948,408.941 125.095,397.763C125.414,404.604 128.185,411.341 133.429,416.564C152.899,437.229 190.8,478.303 210.27,498.968C212.537,501.369 218.903,507.756 229.009,510.712C231.729,511.506 234.016,511.845 235.417,512Z" style="fill:rgb(235,170,97);fill-rule:nonzero;"/>
            <path d="M289.357,311.568C286.792,315.864 285.329,320.881 285.329,326.176L285.329,382.393C285.329,388.083 280.717,392.695 275.027,392.695C269.338,392.695 264.726,388.083 264.726,382.393L264.726,333.163C264.726,332.662 264.79,332.16 264.934,331.681C268.189,320.856 277.738,312.746 289.357,311.568Z" style="fill:rgb(235,170,97);fill-rule:nonzero;"/>
            <path d="M348.665,334.283C344.688,339.64 342.103,346.491 341.598,354.042L341.598,382.393C341.598,388.083 336.986,392.695 331.296,392.695C325.606,392.695 320.994,388.083 320.994,382.393L320.994,360.658C320.994,360.479 321.001,360.299 321.017,360.119C322.308,345.876 334.138,334.673 348.665,334.283Z" style="fill:rgb(235,170,97);fill-rule:nonzero;"/>
            <path d="M402.914,359.925C400.081,365.096 398.649,370.999 398.649,376.974L398.649,382.393C398.649,388.083 394.037,392.695 388.347,392.695C382.658,392.695 378.046,388.083 378.046,382.393L378.046,377.87C378.046,377.098 378.2,376.325 378.55,375.635C383.073,366.631 392.241,360.357 402.914,359.925Z" style="fill:rgb(235,170,97);fill-rule:nonzero;"/>
        </g>
        <path d="M386.019,37.921L386.019,60.636L79.324,60.636L79.324,37.9C79.334,35.098 79.685,22.468 89.667,11.888C100.525,0.391 114.566,0.021 117.039,0L348.407,0C350.972,0.021 364.251,0.381 374.976,11.136C385.782,21.984 386.029,35.387 386.019,37.921Z" style="fill:rgb(95,108,117);fill-rule:nonzero;"/>
        <path d="M137.642,0C135.17,0.021 121.129,0.391 110.271,11.888C100.288,22.468 99.938,35.098 99.928,37.9L99.928,60.636L79.324,60.636L79.324,37.9C79.334,35.098 79.685,22.468 89.667,11.888C100.525,0.391 114.566,0.021 117.039,0L137.642,0Z" style="fill:rgb(78,90,97);fill-rule:nonzero;"/>
        <g>
            <path d="M263.01,38.107L210.578,38.107C206.311,38.107 202.852,34.649 202.852,30.381C202.852,26.113 206.311,22.655 210.578,22.655L263.01,22.655C267.277,22.655 270.737,26.113 270.737,30.381C270.737,34.649 267.277,38.107 263.01,38.107Z" style="fill:rgb(78,90,97);fill-rule:nonzero;"/>
        </g>
        <circle cx="304.209" cy="30.38" r="7.726" style="fill:rgb(78,90,97);"/>
    </g>
</svg>
