<svg viewBox="0 0 512 512" xmlns="http://www.w3.org/2000/svg" fill-rule="evenodd" clip-rule="evenodd" stroke-linejoin="round" stroke-miterlimit="2"><path d="M325.108 0h-221.63c-11.955 0-21.65 9.731-21.65 21.731v438.537c0 12 9.695 21.732 21.65 21.732h221.639c11.946 0 21.641-9.731 21.641-21.732V21.731c0-12-9.695-21.731-21.65-21.731z" fill="#2c353f" fill-rule="nonzero"/><path fill="#659ed8" fill-rule="nonzero" d="M81.828 49.863h264.931v349.034H81.828z"/><path d="M255.689 33.241h-82.792c-4.57 0-8.279-3.723-8.279-8.31 0-4.588 3.71-8.311 8.28-8.311h82.79c4.57 0 8.28 3.723 8.28 8.31 0 4.588-3.71 8.311-8.28 8.311zm57.953 0h-8.28c-4.57 0-8.279-3.723-8.279-8.31 0-4.588 3.71-8.311 8.28-8.311h8.28c4.57 0 8.279 3.723 8.279 8.31 0 4.588-3.71 8.311-8.28 8.311zm-89.075 423.828H204.01c-8.04 0-14.555-6.54-14.555-14.619v-4.014c0-8.07 6.516-14.61 14.564-14.61h20.557c8.04 0 14.555 6.54 14.555 14.619v4.014c0 8.07-6.517 14.61-14.564 14.61z" fill="#c4ced3" fill-rule="nonzero"/><path fill="#f2f2f2" d="M83 50h219.17v348H83z"/><path d="M297 82.25C297 67.762 285.238 56 270.75 56h-156.5C99.762 56 88 67.762 88 82.25v52.5C88 149.238 99.762 161 114.25 161h156.5c14.488 0 26.25-11.762 26.25-26.25v-52.5zM297 304.25c0-14.489-11.762-26.25-26.25-26.25h-156.5C99.762 278 88 289.76 88 304.25v52.5C88 371.236 99.762 383 114.25 383h156.5c14.488 0 26.25-11.763 26.25-26.25v-52.5zM297 193.25c0-14.488-11.762-26.25-26.25-26.25h-156.5C99.762 167 88 178.762 88 193.25v52.5C88 260.238 99.762 272 114.25 272h156.5c14.488 0 26.25-11.762 26.25-26.25v-52.5z" fill="#659ed8" fill-opacity=".22"/><g><path d="M376.594 270.01l70.308 149.69a139.307 139.307 0 017.202 18.742 141.082 141.082 0 014.43 19.6 194.664 194.664 0 006.29 27.845 196.876 196.876 0 0010.224 26.625l-179.327 84.23-12.73-27.105a24.442 24.442 0 00-9.273-10.418 25.214 25.214 0 00-13.542-3.818c-4.737.024-11.246-.678-17.418-1.538a62.955 62.955 0 01-31.155-13.619l-59.77-48.983c-10.224-8.37-14.466-21.958-10.842-34.73l4.719-16.656c2.748-9.66 1.192-19.97-4.234-28.324a24.864 24.864 0 01-1.716-3.051c-5.889-12.537-.455-27.913 12.688-34.087a38.952 38.952 0 013.558-1.476 43.146 43.146 0 0113.914-2.692L97.886 216.882c-3.429-7.3-3.519-15.307-.892-22.388 2.625-7.054 7.96-13.166 15.39-16.656 14.839-6.97 32.43-.807 39.283 13.784l56.672 120.657c-3.429-7.301-3.518-15.307-.904-22.383 2.631-7.07 7.955-13.177 15.386-16.667 14.85-6.975 32.435-.796 39.288 13.795l8.556 18.217c-3.423-7.289-3.519-15.306-.899-22.371 2.62-7.065 7.967-13.183 15.386-16.667 14.85-6.975 32.441-.812 39.294 13.778l5.83 12.411c-5.905-12.571-.775-27.93 11.924-34.145a25.91 25.91 0 0119.98-1.211c6.148 2.166 11.45 6.666 14.414 12.974z" fill="#fcd09f" fill-rule="nonzero"/><path d="M169.92 370.245l38.798 82.601a13.822 13.822 0 01-10.466.558c-3.292-1.155-6.121-3.558-7.707-6.934l-34.539-73.533a43.146 43.146 0 0113.914-2.692z" fill="#e2b991" fill-rule="nonzero"/></g></svg>